<svg xmlns="http://www.w3.org/2000/svg" viewBox="0 0 569.52 164.7"><defs><style>.cls-1{fill:#c6d444;}.cls-2{fill:#fff;}</style></defs><title>logo_opt</title><g id="Capa_2" data-name="Capa 2"><g id="Isolation_Mode" data-name="Isolation Mode"><path class="cls-1" d="M0,75.74Q0,56.11,13.24,43.37T49,30.64q25.74,0,38.9,15,10.59,12,10.58,29.65,0,19.81-13.12,32.46T49.08,120.35q-20.67,0-33.42-10.51Q0,96.85,0,75.74Zm33-.1q0,11.49,4.64,17a14.59,14.59,0,0,0,11.65,5.5A14.55,14.55,0,0,0,60.93,92.7c3-3.62,4.56-9.4,4.56-17.38q0-11.14-4.6-16.6a14.28,14.28,0,0,0-11.37-5.46A14.81,14.81,0,0,0,37.67,58.8Q33,64.34,33,75.64Z"/><path class="cls-1" d="M102.92,151V32.62h30.81V45.25q6.38-8,11.71-10.81a33.45,33.45,0,0,1,15.89-3.8q17.19,0,26.59,13.18t9.4,32.57q0,21.44-10.24,32.69t-25.91,11.27a36.12,36.12,0,0,1-13.83-2.58,33,33,0,0,1-11.18-7.69V151Zm33-75.3q0,10.18,4.27,15.14A13.71,13.71,0,0,0,151,95.77,11.92,11.92,0,0,0,160.59,91q3.87-4.74,3.87-16.06,0-10.44-4-15.33a12.3,12.3,0,0,0-9.84-4.9,13.21,13.21,0,0,0-10.48,4.93C137.31,63,135.92,68.3,135.92,75.7Z"/><path class="cls-1" d="M243.42,0V32.62h18V56.71h-18V87.13c0,3.64.35,6.08,1.05,7.25,1.08,1.83,2.95,2.75,5.64,2.75A36.37,36.37,0,0,0,260.28,95l2.41,22.66a106.78,106.78,0,0,1-22.78,2.66q-12.27,0-18.09-3.15a19.13,19.13,0,0,1-8.61-9.55q-2.78-6.41-2.78-20.77V56.71H198.32V32.62h12.11V16.88Z"/><path class="cls-1" d="M267,0H299.9V22.36H267Zm0,32.62H299.9v85.75H267Z"/><path class="cls-1" d="M305.5,32.62h30.73V45.09q6.63-7.83,13.39-11.14a36.93,36.93,0,0,1,16.32-3.31q10.28,0,16.28,3.64A27.13,27.13,0,0,1,392,45.09q7.74-8.4,14.12-11.42t15.75-3q13.81,0,21.55,8.2t7.75,25.65v53.88h-33V69.44c0-3.87-.75-6.76-2.25-8.65q-3.31-4.44-8.21-4.45a11.64,11.64,0,0,0-9.35,4.21c-2.36,2.8-3.54,7.31-3.54,13.5v44.32h-33V71.1a29.91,29.91,0,0,0-.65-7.69,10.57,10.57,0,0,0-3.65-5.21,9.75,9.75,0,0,0-6.08-2,11.71,11.71,0,0,0-9.33,4.29q-3.64,4.27-3.65,14.06v43.8h-33Z"/><path class="cls-1" d="M555.05,83.65H489.19q.88,7.95,4.28,11.85a15.57,15.57,0,0,0,12.43,5.57,18.39,18.39,0,0,0,9.19-2.44,21.52,21.52,0,0,0,5.73-5.46l32.38,3q-7.44,13-17.94,18.59t-30.12,5.62q-17.06,0-26.82-4.81a39.34,39.34,0,0,1-16.19-15.27q-6.44-10.45-6.42-24.61,0-20.11,12.88-32.57t35.58-12.45q18.42,0,29.07,5.58a37.71,37.71,0,0,1,16.24,16.16q5.58,10.59,5.57,27.55ZM521.56,68q-1-9.54-5.11-13.67a16,16,0,0,0-23.39,2.11q-3,3.87-3.79,11.56Z"/><path class="cls-1" d="M569.52,27.31A10.51,10.51,0,1,1,559.1,17.08,10.3,10.3,0,0,1,569.52,27.31Zm-18.4,0a8,8,0,0,0,8,8.17,7.83,7.83,0,0,0,7.8-8.11,7.9,7.9,0,1,0-15.78-.06Zm6.3,5.3h-2.37V22.38a28.47,28.47,0,0,1,3.93-.31,5.4,5.4,0,0,1,3.49.81,2.56,2.56,0,0,1,1.07,2.18,2.64,2.64,0,0,1-2.12,2.43v.13c1,.31,1.49,1.12,1.81,2.5a9.07,9.07,0,0,0,.74,2.49h-2.49a8,8,0,0,1-.82-2.49c-.18-1.07-.81-1.56-2.12-1.56h-1.12Zm.07-5.74h1.11c1.32,0,2.38-.43,2.38-1.5s-.69-1.55-2.19-1.55a5.75,5.75,0,0,0-1.3.12Z"/><path class="cls-2" d="M191.09,146.86c0-3.64,1-6.35,3-8.1a9.15,9.15,0,0,1,6.19-2.19,8.85,8.85,0,0,1,6.64,2.66,10.13,10.13,0,0,1,2.58,7.35,13,13,0,0,1-1.14,6,8.1,8.1,0,0,1-3.32,3.39,9.7,9.7,0,0,1-4.76,1.2,8.84,8.84,0,0,1-6.68-2.65C191.94,152.73,191.09,150.19,191.09,146.86Zm3.43,0q0,3.78,1.65,5.67a5.5,5.5,0,0,0,8.29,0c1.1-1.26,1.65-3.19,1.65-5.77a8.14,8.14,0,0,0-1.66-5.53,5.49,5.49,0,0,0-8.28,0C195.07,142.45,194.52,144.34,194.52,146.86Z"/><path class="cls-2" d="M213.45,164.25V137h3v2.56a7.24,7.24,0,0,1,2.43-2.25,6.55,6.55,0,0,1,3.28-.76,7.76,7.76,0,0,1,4.45,1.3,8,8,0,0,1,2.91,3.66,13.46,13.46,0,0,1,1,5.18,13.26,13.26,0,0,1-1.08,5.45,8.3,8.3,0,0,1-3.16,3.71,8.12,8.12,0,0,1-4.34,1.28,6.29,6.29,0,0,1-3-.7,6.83,6.83,0,0,1-2.17-1.78v9.58Zm3-17.28q0,3.81,1.54,5.62a4.72,4.72,0,0,0,3.73,1.82,4.85,4.85,0,0,0,3.81-1.88c1-1.26,1.58-3.2,1.58-5.84a8.71,8.71,0,0,0-1.55-5.63,4.64,4.64,0,0,0-3.7-1.87,4.79,4.79,0,0,0-3.77,2A8.94,8.94,0,0,0,216.47,147Z"/><path class="cls-2" d="M241.85,153.72l.48,2.95a12.18,12.18,0,0,1-2.52.29,5.77,5.77,0,0,1-2.82-.57,3.25,3.25,0,0,1-1.41-1.51,12.07,12.07,0,0,1-.4-3.94V139.61h-2.45V137h2.45v-4.88l3.31-2V137h3.36v2.59h-3.36v11.51a5.69,5.69,0,0,0,.18,1.84,1.43,1.43,0,0,0,.57.65,2.26,2.26,0,0,0,1.15.24A10.32,10.32,0,0,0,241.85,153.72Z"/><path class="cls-2" d="M245.13,133.37v-3.84h3.34v3.84Zm0,23.34V137h3.34v19.69Z"/><path class="cls-2" d="M253.55,156.71V137h3v2.76a7.08,7.08,0,0,1,2.47-2.33,7,7,0,0,1,3.5-.88,6.52,6.52,0,0,1,3.59.91,4.86,4.86,0,0,1,2,2.54,7.08,7.08,0,0,1,6.09-3.45,6,6,0,0,1,4.5,1.62,7,7,0,0,1,1.58,5v13.52h-3.32V144.3a9,9,0,0,0-.33-2.88,2.83,2.83,0,0,0-1.17-1.42,3.68,3.68,0,0,0-2-.54,4.65,4.65,0,0,0-3.44,1.39,6,6,0,0,0-1.38,4.42v11.44h-3.33v-12.8a5.63,5.63,0,0,0-.82-3.33,3.06,3.06,0,0,0-2.67-1.12,4.85,4.85,0,0,0-2.6.74,4.24,4.24,0,0,0-1.74,2.17,12.27,12.27,0,0,0-.53,4.12v10.22Z"/><path class="cls-2" d="M298.65,150.37l3.45.42a8.37,8.37,0,0,1-3,4.69,9.1,9.1,0,0,1-5.64,1.67,9,9,0,0,1-6.85-2.66c-1.68-1.77-2.53-4.26-2.53-7.46s.86-5.88,2.56-7.71a8.67,8.67,0,0,1,6.64-2.75,8.43,8.43,0,0,1,6.45,2.69q2.51,2.69,2.5,7.56c0,.2,0,.5,0,.89H287.51a7.59,7.59,0,0,0,1.84,5,5.46,5.46,0,0,0,4.11,1.73,5.08,5.08,0,0,0,3.14-1A6.39,6.39,0,0,0,298.65,150.37ZM287.7,145h11a6.74,6.74,0,0,0-1.26-3.73,5.12,5.12,0,0,0-4.13-1.92,5.28,5.28,0,0,0-3.87,1.54A6.07,6.07,0,0,0,287.7,145Z"/><path class="cls-2" d="M319.14,149.49l3.28.43a8.55,8.55,0,0,1-2.75,5.31,8,8,0,0,1-5.44,1.92,8.44,8.44,0,0,1-6.5-2.64q-2.46-2.64-2.46-7.58a13.73,13.73,0,0,1,1.06-5.57,7.29,7.29,0,0,1,3.21-3.59,9.53,9.53,0,0,1,4.7-1.2,8.24,8.24,0,0,1,5.25,1.62,7.51,7.51,0,0,1,2.62,4.61l-3.25.5a5.39,5.39,0,0,0-1.64-3,4.23,4.23,0,0,0-2.84-1,5.18,5.18,0,0,0-4.1,1.8c-1,1.21-1.58,3.11-1.58,5.72s.51,4.57,1.52,5.77a5,5,0,0,0,4,1.8,4.65,4.65,0,0,0,3.28-1.21A5.94,5.94,0,0,0,319.14,149.49Z"/><path class="cls-2" d="M324,146.86c0-3.64,1-6.35,3.05-8.1a9.13,9.13,0,0,1,6.19-2.19,8.83,8.83,0,0,1,6.63,2.66,10.13,10.13,0,0,1,2.58,7.35,13,13,0,0,1-1.14,6A8.1,8.1,0,0,1,338,156a9.69,9.69,0,0,1-4.75,1.2,8.81,8.81,0,0,1-6.68-2.65C324.88,152.73,324,150.19,324,146.86Zm3.43,0q0,3.78,1.65,5.67a5.31,5.31,0,0,0,4.16,1.88,5.26,5.26,0,0,0,4.13-1.89c1.1-1.26,1.65-3.19,1.65-5.77a8.14,8.14,0,0,0-1.66-5.53,5.49,5.49,0,0,0-8.28,0C328,142.45,327.46,144.34,327.46,146.86Z"/><path class="cls-2" d="M346.39,156.71V137h3v2.8a7.05,7.05,0,0,1,6.26-3.25,8.12,8.12,0,0,1,3.27.64,5.22,5.22,0,0,1,2.24,1.68,6.5,6.5,0,0,1,1,2.47,19.5,19.5,0,0,1,.18,3.24v12.11h-3.34v-12a9,9,0,0,0-.38-3,3.26,3.26,0,0,0-1.38-1.61,4.45,4.45,0,0,0-2.33-.61,5.37,5.37,0,0,0-3.68,1.36c-1,.9-1.55,2.61-1.55,5.13v10.76Z"/><path class="cls-2" d="M366.17,150.83l3.3-.52a4.61,4.61,0,0,0,1.55,3,5.43,5.43,0,0,0,3.55,1.06,5.18,5.18,0,0,0,3.41-.94,2.8,2.8,0,0,0,1.11-2.2,2,2,0,0,0-1-1.78,14.74,14.74,0,0,0-3.41-1.13,30.94,30.94,0,0,1-5.09-1.6,5,5,0,0,1-2.15-1.87,5.16,5.16,0,0,1-.12-5.08,5.33,5.33,0,0,1,1.63-1.87,7.12,7.12,0,0,1,2.12-1,10.35,10.35,0,0,1,2.89-.4,11.31,11.31,0,0,1,4.07.67,5.64,5.64,0,0,1,2.59,1.8,7.2,7.2,0,0,1,1.14,3.06l-3.26.44a3.62,3.62,0,0,0-1.28-2.37,4.74,4.74,0,0,0-3-.85,5.42,5.42,0,0,0-3.28.76,2.18,2.18,0,0,0-1,1.77,1.82,1.82,0,0,0,.4,1.17,3,3,0,0,0,1.28.89c.34.13,1.32.41,2.95.86a43.5,43.5,0,0,1,4.94,1.54,5.08,5.08,0,0,1,2.2,1.76,4.87,4.87,0,0,1,.8,2.85,5.59,5.59,0,0,1-1,3.14,6.26,6.26,0,0,1-2.81,2.29,10.31,10.31,0,0,1-4.15.8,9.22,9.22,0,0,1-5.84-1.59A7.4,7.4,0,0,1,366.17,150.83Z"/><path class="cls-2" d="M399.4,156.71v-2.9a7.21,7.21,0,0,1-6.25,3.34,7.93,7.93,0,0,1-3.26-.67,5.16,5.16,0,0,1-2.23-1.68,6.1,6.1,0,0,1-1-2.47,17.5,17.5,0,0,1-.2-3.11V137h3.34v10.92a19.21,19.21,0,0,0,.2,3.52,3.5,3.5,0,0,0,1.33,2.07,4.24,4.24,0,0,0,2.53.75,5.39,5.39,0,0,0,2.81-.78,4.17,4.17,0,0,0,1.86-2.08,10.43,10.43,0,0,0,.55-3.85V137h3.34v19.69Z"/><path class="cls-2" d="M407.53,156.71V129.53h3.34v27.18Z"/><path class="cls-2" d="M423.33,153.72l.48,2.95a12.18,12.18,0,0,1-2.52.29,5.77,5.77,0,0,1-2.82-.57,3.25,3.25,0,0,1-1.41-1.51,12.07,12.07,0,0,1-.4-3.94V139.61h-2.45V137h2.45v-4.88l3.32-2V137h3.35v2.59H420v11.51a5.79,5.79,0,0,0,.17,1.84,1.4,1.4,0,0,0,.58.65,2.2,2.2,0,0,0,1.14.24A10.32,10.32,0,0,0,423.33,153.72Z"/><path class="cls-2" d="M426.61,133.37v-3.84H430v3.84Zm0,23.34V137H430v19.69Z"/><path class="cls-2" d="M435,156.71V137h3v2.8a7.08,7.08,0,0,1,6.27-3.25,8.15,8.15,0,0,1,3.27.64,5.18,5.18,0,0,1,2.23,1.68,6.2,6.2,0,0,1,1,2.47,18.16,18.16,0,0,1,.19,3.24v12.11h-3.34v-12a9,9,0,0,0-.39-3,3.22,3.22,0,0,0-1.38-1.61,4.42,4.42,0,0,0-2.33-.61,5.37,5.37,0,0,0-3.68,1.36q-1.55,1.35-1.54,5.13v10.76Z"/><path class="cls-2" d="M455.53,158.34l3.25.48a3.08,3.08,0,0,0,1.13,2.19,5.61,5.61,0,0,0,3.39.92,6,6,0,0,0,3.58-.92,4.61,4.61,0,0,0,1.71-2.6,21.78,21.78,0,0,0,.24-4.28,6.87,6.87,0,0,1-5.46,2.58,7.43,7.43,0,0,1-6.28-2.93,11.33,11.33,0,0,1-2.23-7,13.08,13.08,0,0,1,1-5.2,8,8,0,0,1,3-3.68,7.89,7.89,0,0,1,4.54-1.3,7.06,7.06,0,0,1,5.75,2.82V137h3.08v17c0,3.06-.32,5.24-.94,6.51a6.84,6.84,0,0,1-3,3,10.14,10.14,0,0,1-5,1.12,9.38,9.38,0,0,1-5.69-1.59A5.34,5.34,0,0,1,455.53,158.34Zm2.76-11.83c0,2.58.52,4.47,1.54,5.65a5.08,5.08,0,0,0,7.72,0c1-1.17,1.55-3,1.55-5.55a8.06,8.06,0,0,0-1.6-5.45,5,5,0,0,0-3.87-1.84,4.79,4.79,0,0,0-3.78,1.82A8,8,0,0,0,458.29,146.51Z"/><path class="cls-2" d="M478.21,156.71v-3.8H482v3.8Z"/><path class="cls-2" d="M500.66,149.49l3.28.43a8.55,8.55,0,0,1-2.75,5.31,8,8,0,0,1-5.44,1.92,8.44,8.44,0,0,1-6.5-2.64q-2.46-2.64-2.46-7.58a13.57,13.57,0,0,1,1.06-5.57,7.26,7.26,0,0,1,3.22-3.59,9.46,9.46,0,0,1,4.69-1.2,8.24,8.24,0,0,1,5.25,1.62,7.45,7.45,0,0,1,2.61,4.61l-3.24.5a5.39,5.39,0,0,0-1.64-3,4.24,4.24,0,0,0-2.85-1,5.18,5.18,0,0,0-4.09,1.8c-1.06,1.21-1.58,3.11-1.58,5.72s.51,4.57,1.52,5.77a5,5,0,0,0,4,1.8A4.65,4.65,0,0,0,499,153.2,6,6,0,0,0,500.66,149.49Z"/><path class="cls-2" d="M505.55,146.86c0-3.64,1-6.35,3-8.1a9.15,9.15,0,0,1,6.19-2.19,8.85,8.85,0,0,1,6.64,2.66,10.13,10.13,0,0,1,2.58,7.35,12.87,12.87,0,0,1-1.15,6,8,8,0,0,1-3.31,3.39,9.73,9.73,0,0,1-4.76,1.2,8.84,8.84,0,0,1-6.68-2.65C506.4,152.73,505.55,150.19,505.55,146.86Zm3.43,0q0,3.78,1.65,5.67a5.5,5.5,0,0,0,8.29,0c1.1-1.26,1.65-3.19,1.65-5.77a8.14,8.14,0,0,0-1.66-5.53,5.49,5.49,0,0,0-8.28,0C509.53,142.45,509,144.34,509,146.86Z"/><path class="cls-2" d="M527.91,156.71V137h3v2.76a6.91,6.91,0,0,1,6-3.21,6.59,6.59,0,0,1,3.59.91,5,5,0,0,1,2,2.54,7.05,7.05,0,0,1,6.08-3.45,6,6,0,0,1,4.5,1.62,7,7,0,0,1,1.58,5v13.52h-3.32V144.3a9.37,9.37,0,0,0-.32-2.88,2.85,2.85,0,0,0-1.18-1.42,3.67,3.67,0,0,0-2-.54,4.66,4.66,0,0,0-3.45,1.39c-.92.92-1.37,2.39-1.37,4.42v11.44h-3.34v-12.8a5.56,5.56,0,0,0-.82-3.33,3.06,3.06,0,0,0-2.67-1.12,4.85,4.85,0,0,0-2.6.74,4.18,4.18,0,0,0-1.73,2.17,12.23,12.23,0,0,0-.54,4.12v10.22Z"/></g></g></svg>